<?xml version="1.0" standalone="no"?>
<!DOCTYPE svg PUBLIC "-//W3C//DTD SVG 20010904//EN"
 "http://www.w3.org/TR/2001/REC-SVG-20010904/DTD/svg10.dtd">
<svg version="1.0" xmlns="http://www.w3.org/2000/svg"
 width="576.000000pt" height="576.000000pt" viewBox="0 0 576.000000 576.000000"
 preserveAspectRatio="xMidYMid meet">
<metadata>
Created by potrace 1.14, written by Peter Selinger 2001-2017
</metadata>
<g transform="translate(0.000000,576.000000) scale(0.100000,-0.100000)"
fill="#000000" stroke="none">
<path d="M2848 5045 c-2 -3 -71 -7 -154 -10 -82 -3 -160 -8 -174 -10 -14 -1
-50 -6 -80 -9 -48 -6 -93 -13 -197 -32 -16 -3 -48 -10 -73 -15 -25 -6 -52 -12
-60 -14 -8 -1 -35 -8 -60 -15 -25 -7 -52 -13 -60 -15 -8 -2 -42 -10 -75 -20
-33 -9 -78 -21 -100 -27 -22 -5 -49 -13 -60 -18 -11 -5 -51 -21 -90 -36 -71
-27 -202 -92 -284 -140 -172 -100 -403 -313 -537 -494 -224 -303 -362 -714
-365 -1085 -1 -111 16 -384 27 -450 3 -16 7 -42 9 -56 5 -39 34 -146 56 -214
22 -65 26 -75 59 -150 34 -76 40 -88 53 -110 7 -11 30 -51 52 -88 21 -37 43
-67 47 -67 4 0 8 -5 8 -12 0 -6 19 -35 42 -62 24 -28 50 -60 58 -70 50 -63
267 -256 288 -256 6 0 12 -3 14 -7 8 -20 282 -173 308 -173 5 0 33 -11 62 -24
64 -30 114 -75 158 -141 19 -27 46 -69 62 -92 15 -23 28 -46 28 -52 0 -6 4
-11 9 -11 5 0 11 -8 15 -17 31 -94 206 -221 312 -228 106 -7 202 69 220 174
10 57 69 82 116 50 16 -12 32 -38 43 -72 20 -63 72 -123 129 -147 96 -42 274
-40 364 2 48 22 98 68 107 98 4 11 10 20 15 20 4 0 11 18 15 40 12 69 85 103
133 62 11 -10 25 -36 31 -57 21 -78 76 -139 146 -162 41 -14 117 -8 156 11 18
9 36 16 41 16 12 0 86 57 116 90 27 29 65 87 156 240 64 109 102 142 244 210
249 120 449 278 588 465 25 33 51 67 59 76 18 23 107 176 127 219 24 52 73
178 91 235 13 44 21 77 42 185 6 27 11 69 20 165 26 268 24 488 -6 640 -6 28
-12 59 -14 70 -24 156 -134 434 -238 605 -40 66 -121 180 -167 235 -54 65
-218 223 -280 270 -36 28 -67 52 -70 55 -7 7 -74 51 -129 85 -92 57 -297 151
-396 181 -112 35 -385 101 -455 110 -19 2 -42 6 -50 9 -13 3 -47 8 -170 21
-19 2 -86 6 -148 8 -62 3 -117 8 -121 10 -5 3 -10 3 -13 1z m-1033 -1100 c203
-54 363 -203 430 -400 26 -77 30 -102 29 -211 0 -83 -5 -116 -28 -187 -16 -48
-33 -87 -39 -87 -6 0 -8 -3 -4 -6 11 -11 -53 -96 -120 -161 -206 -200 -518
-230 -763 -75 -121 76 -228 220 -266 357 -19 70 -26 232 -12 282 13 49 19 76
20 91 1 6 5 12 10 12 4 0 8 7 8 16 0 14 37 88 65 127 22 32 110 121 141 143
155 110 349 147 529 99z m2310 10 c74 -15 190 -65 237 -103 110 -87 202 -211
230 -307 17 -59 16 -57 23 -90 25 -115 -6 -317 -61 -402 -8 -13 -15 -26 -15
-30 -2 -12 -59 -83 -94 -118 -77 -76 -154 -123 -254 -155 -47 -16 -150 -34
-186 -33 -29 1 -132 14 -147 19 -9 2 -25 7 -35 9 -10 2 -34 10 -53 18 -19 8
-39 16 -45 18 -15 4 -108 70 -146 104 -167 149 -240 401 -180 622 75 275 333
466 616 457 44 -1 94 -5 110 -9z"/>
</g>
</svg>
