<svg xmlns="http://www.w3.org/2000/svg" xmlns:xlink="http://www.w3.org/1999/xlink"><symbol id="logo" viewBox="0 0 36 33"><path fill-rule="evenodd" clip-rule="evenodd" d="M12.8 3.623a19.391 19.391 0 0 1 9.755 0l.532.139a11.949 11.949 0 0 1 8.906 12.516l-.096 1.205a9.98 9.98 0 0 1-6.15 8.433 2.047 2.047 0 0 0-.978.842l-.804 1.345a2.709 2.709 0 0 1-1.537 1.2l-.037.012c-.122.037-.25.053-.377.048a1.355 1.355 0 0 1-1.26-1.048l-.028-.117c-.12-.515-.85-.523-.98-.01l-.022.085c-.16.63-.69 1.097-1.336 1.177l-.434.053c-.15.018-.3.018-.45 0l-.484-.06a1.504 1.504 0 0 1-1.275-1.122l-.03-.12c-.124-.489-.825-.47-.923.024l-.016.078a1.319 1.319 0 0 1-1.236 1.06 1.099 1.099 0 0 1-.367-.046l-.05-.015a2.797 2.797 0 0 1-1.548-1.178l-.86-1.356a2.087 2.087 0 0 0-1.034-.838 10.177 10.177 0 0 1-6.619-9.06l-.049-1.048a11.765 11.765 0 0 1 8.793-11.94l.995-.259Zm-2.453 13.884a3.901 3.901 0 1 0 0-7.802 3.901 3.901 0 0 0 0 7.802Zm14.662 0a3.9 3.9 0 1 0 0-7.801 3.9 3.9 0 0 0 0 7.801Z"/></symbol><symbol id="menu" viewBox="0 0 24 24"><path d="M5.497 7.248a.75.75 0 0 0 0 1.5h13.005a.75.75 0 0 0 0-1.5H5.497ZM4.748 12a.75.75 0 0 1 .75-.75h13.005a.75.75 0 0 1 0 1.5H5.498a.75.75 0 0 1-.75-.75ZM4.748 16.002a.75.75 0 0 1 .75-.75h13.005a.75.75 0 0 1 0 1.5H5.498a.75.75 0 0 1-.75-.75Z"/></symbol></svg>